<svg width="18" height="19" viewBox="0 0 18 19" fill="none" xmlns="http://www.w3.org/2000/svg">
<path d="M10 12.7501C10 12.1533 10.2371 11.581 10.659 11.1591C11.081 10.7371 11.6533 10.5001 12.25 10.5001L15.75 10.5001C16.3467 10.5001 16.919 10.7371 17.341 11.1591C17.7629 11.581 18 12.1533 18 12.7501L18 16.2501C18 16.8468 17.7629 17.4191 17.341 17.8411C16.919 18.263 16.3467 18.5001 15.75 18.5001L12.25 18.5001C11.6533 18.5001 11.081 18.263 10.659 17.8411C10.2371 17.4191 10 16.8468 10 16.2501L10 12.7501ZM10 2.75006C10 2.15332 10.2371 1.58103 10.659 1.15907C11.081 0.737114 11.6533 0.500061 12.25 0.500061L15.75 0.500061C16.3467 0.500061 16.919 0.737114 17.341 1.15907C17.7629 1.58103 18 2.15332 18 2.75006L18 6.25006C18 6.8468 17.7629 7.41909 17.341 7.84105C16.919 8.26301 16.3467 8.50006 15.75 8.50006L12.25 8.50006C11.6533 8.50006 11.081 8.26301 10.659 7.84105C10.2371 7.41909 10 6.8468 10 6.25006L10 2.75006ZM4.37114e-07 12.7501C4.1103e-07 12.1533 0.237053 11.581 0.65901 11.1591C1.08097 10.7371 1.65326 10.5001 2.25 10.5001L5.75 10.5001C6.34674 10.5001 6.91903 10.7371 7.34099 11.1591C7.76295 11.581 8 12.1533 8 12.7501L8 16.2501C8 16.8468 7.76295 17.4191 7.34099 17.8411C6.91903 18.263 6.34674 18.5001 5.75 18.5001L2.25 18.5001C1.65326 18.5001 1.08097 18.263 0.65901 17.8411C0.237054 17.4191 6.16188e-07 16.8468 5.90104e-07 16.2501L4.37114e-07 12.7501ZM0 2.75006C-2.60842e-08 2.15332 0.237053 1.58103 0.65901 1.15907C1.08097 0.737114 1.65326 0.500062 2.25 0.500062L5.75 0.500061C6.34674 0.500061 6.91903 0.737114 7.34099 1.15907C7.76295 1.58103 8 2.15332 8 2.75006L8 6.25006C8 6.8468 7.76295 7.41909 7.34099 7.84105C6.91903 8.26301 6.34674 8.50006 5.75 8.50006L2.25 8.50006C1.65326 8.50006 1.08097 8.26301 0.65901 7.84105C0.237053 7.41909 1.79074e-07 6.8468 1.5299e-07 6.25006L0 2.75006Z" fill="#6C7275"/>
<path d="M3 18.5001L3 10.502L15 10.502L15 18.5001L3 18.5001Z" fill="#6C7275"/>
<path d="M3 8.49811L3 0.500062L15 0.500061L15 8.49811L3 8.49811Z" fill="#6C7275"/>
</svg>
